<mxfile modified="2020-01-10T13:35:47.700Z" host="www.draw.io" agent="Mozilla/5.0 (Windows NT 10.0; Win64; x64) AppleWebKit/537.36 (KHTML, like Gecko) Chrome/79.0.3945.88 Safari/537.36" etag="C-utNiEcLRRcNPcmjOA4" version="12.5.1" type="github">
  <diagram name="Page-1" id="97a40813-6b03-0c74-37c1-0168de264b11">
    <mxGraphModel dx="483" dy="397" grid="1" gridSize="10" guides="1" tooltips="1" connect="1" arrows="1" fold="1" page="1" pageScale="1" pageWidth="1000" pageHeight="600" background="#ffffff" math="0" shadow="0">
      <root>
        <mxCell id="0"/>
        <mxCell id="1" parent="0"/>
        <UserObject label="&lt;a href=&quot;babylonian-programming.md&quot;&gt;Babylonian Programming&lt;/a&gt;" id="ghZ7vWJIJKBKPPi3PgTr-1">
          <mxCell style="text;html=1;" vertex="1" parent="1">
            <mxGeometry x="10" y="70" width="160" height="30" as="geometry"/>
          </mxCell>
        </UserObject>
        <mxCell id="ghZ7vWJIJKBKPPi3PgTr-2" value="&lt;a href=&quot;fileindex.md&quot;&gt;FileIndex&lt;/a&gt;" style="text;html=1;" vertex="1" parent="1">
          <mxGeometry x="230" y="80" width="90" height="30" as="geometry"/>
        </mxCell>
        <mxCell id="ghZ7vWJIJKBKPPi3PgTr-3" value="indexDB" style="shape=cylinder;whiteSpace=wrap;html=1;boundedLbl=1;backgroundOutline=1;" vertex="1" parent="1">
          <mxGeometry x="230" y="110" width="60" height="50" as="geometry"/>
        </mxCell>
        <mxCell id="ghZ7vWJIJKBKPPi3PgTr-7" value="" style="shape=image;verticalLabelPosition=bottom;labelBackgroundColor=#ffffff;verticalAlign=top;aspect=fixed;imageAspect=0;image=https://lively-kernel.org/lively4/lively4-jens/src/babylonian-programming-editor/presentation/babylonian_lion.png;" vertex="1" parent="1">
          <mxGeometry x="10" y="17" width="56" height="56" as="geometry"/>
        </mxCell>
        <mxCell id="ghZ7vWJIJKBKPPi3PgTr-11" value="&lt;a href=&quot;lively.md&quot;&gt;Lively&lt;/a&gt;" style="text;html=1;" vertex="1" parent="1">
          <mxGeometry x="120" y="200" width="70" height="30" as="geometry"/>
        </mxCell>
        <mxCell id="ghZ7vWJIJKBKPPi3PgTr-12" value="&lt;a href=&quot;polymorphic-identifiers.md&quot;&gt;Polymorphic Identifiers&lt;/a&gt;" style="text;html=1;" vertex="1" parent="1">
          <mxGeometry x="200" y="230" width="170" height="30" as="geometry"/>
        </mxCell>
        <mxCell id="ghZ7vWJIJKBKPPi3PgTr-13" value="&lt;a href=&quot;server.md&quot;&gt;Serrver&lt;/a&gt;" style="text;html=1;" vertex="1" parent="1">
          <mxGeometry x="400" y="260" width="80" height="30" as="geometry"/>
        </mxCell>
        <mxCell id="ghZ7vWJIJKBKPPi3PgTr-14" value="" style="shape=cylinder;whiteSpace=wrap;html=1;boundedLbl=1;backgroundOutline=1;" vertex="1" parent="1">
          <mxGeometry x="400" y="180" width="60" height="80" as="geometry"/>
        </mxCell>
        <mxCell id="ghZ7vWJIJKBKPPi3PgTr-15" value="node.js" style="text;html=1;strokeColor=none;fillColor=none;align=center;verticalAlign=middle;whiteSpace=wrap;rounded=0;" vertex="1" parent="1">
          <mxGeometry x="410" y="279.55" width="40" height="20" as="geometry"/>
        </mxCell>
        <mxCell id="ghZ7vWJIJKBKPPi3PgTr-16" value="git" style="text;html=1;strokeColor=none;fillColor=none;align=center;verticalAlign=middle;whiteSpace=wrap;rounded=0;" vertex="1" parent="1">
          <mxGeometry x="410" y="299.55" width="40" height="20" as="geometry"/>
        </mxCell>
        <mxCell id="ghZ7vWJIJKBKPPi3PgTr-17" value="github" style="text;html=1;strokeColor=none;fillColor=none;align=center;verticalAlign=middle;whiteSpace=wrap;rounded=0;" vertex="1" parent="1">
          <mxGeometry x="400" y="319.55" width="40" height="20" as="geometry"/>
        </mxCell>
        <mxCell id="ghZ7vWJIJKBKPPi3PgTr-19" value="&lt;a href=&quot;swx.md&quot;&gt;Service Worker&lt;/a&gt;" style="text;html=1;" vertex="1" parent="1">
          <mxGeometry x="280" y="360" width="70" height="30" as="geometry"/>
        </mxCell>
        <mxCell id="ghZ7vWJIJKBKPPi3PgTr-20" value="&lt;a href=&quot;projectional-editing.md&quot;&gt;Projectional Editing&lt;/a&gt;" style="text;html=1;" vertex="1" parent="1">
          <mxGeometry x="160" y="310" width="150" height="30" as="geometry"/>
        </mxCell>
        <mxCell id="ghZ7vWJIJKBKPPi3PgTr-21" value="&lt;a href=&quot;utils.md&quot;&gt;Utils&lt;/a&gt;" style="text;html=1;" vertex="1" parent="1">
          <mxGeometry x="210" y="370" width="70" height="30" as="geometry"/>
        </mxCell>
        <mxCell id="ghZ7vWJIJKBKPPi3PgTr-23" value="&lt;a href=&quot;visualizations.md&quot;&gt;Visualizations&lt;/a&gt;" style="text;html=1;" vertex="1" parent="1">
          <mxGeometry x="360" y="410" width="120" height="30" as="geometry"/>
        </mxCell>
      </root>
    </mxGraphModel>
  </diagram>
</mxfile>
